<svg xmlns="http://www.w3.org/2000/svg" fill="#FFFFFF" viewBox="0 0 50 50" width="200px" height="200px"><path d="M 4.84375 6 C 3.269531 6 2 7.320313 2 8.890625 L 2 43 C 2 43.550781 2.449219 44 3 44 L 47 44 C 47.550781 44 48 43.550781 48 43 L 48 8.890625 C 48 7.320313 46.730469 6 45.15625 6 Z M 4.84375 8 L 45.15625 8 C 45.621094 8 46 8.375 46 8.890625 L 46 18 L 4 18 L 4 8.890625 C 4 8.375 4.378906 8 4.84375 8 Z M 19 10 L 19 16 L 43 16 L 43 10 Z M 8 11 C 6.894531 11 6 11.894531 6 13 C 6 14.105469 6.894531 15 8 15 C 9.105469 15 10 14.105469 10 13 C 10 11.894531 9.105469 11 8 11 Z M 14 11 C 12.894531 11 12 11.894531 12 13 C 12 14.105469 12.894531 15 14 15 C 15.105469 15 16 14.105469 16 13 C 16 11.894531 15.105469 11 14 11 Z M 21 12 L 41 12 L 41 14 L 21 14 Z M 4 20 L 46 20 L 46 42 L 4 42 Z M 7 23 L 7 30 L 29 30 L 29 23 Z M 32 23 L 32 39 L 43 39 L 43 23 Z M 9 25 L 27 25 L 27 28 L 9 28 Z M 34 25 L 41 25 L 41 37 L 34 37 Z M 7 32 L 7 39 L 29 39 L 29 32 Z M 9 34 L 27 34 L 27 37 L 9 37 Z"/></svg>